<?xml version="1.0" encoding="utf-8"?>
<!-- Generator: Adobe Illustrator 27.5.0, SVG Export Plug-In . SVG Version: 6.00 Build 0)  -->
<svg version="1.1" id="Capa_1" xmlns="http://www.w3.org/2000/svg" xmlns:xlink="http://www.w3.org/1999/xlink" x="0px" y="0px"
	 viewBox="0 0 2465 1826" style="enable-background:new 0 0 2465 1826;" xml:space="preserve">
<rect x="0.004" style="fill:#65C6BC;" width="2464.586" height="1825.863"/>
<g>
	<path style="fill:none;stroke:#002B3E;stroke-width:4.4056;stroke-miterlimit:10;" d="M1353.445,276.492
		c47.582,68.594,30.563,162.773-38.027,210.359c-68.594,47.59-162.766,30.57-210.355-38.02
		c-47.594-68.59-30.574-162.773,38.02-210.363C1211.676,190.875,1305.852,207.902,1353.445,276.492z"/>
	<path style="fill:none;stroke:#002B3E;stroke-width:4.4056;stroke-miterlimit:10;" d="M1386.18,253.777
		c60.141,86.668,38.629,205.68-48.039,265.816c-86.68,60.137-205.688,38.625-265.824-48.043
		c-60.137-86.672-38.621-205.684,48.051-265.82C1207.039,145.594,1326.043,167.102,1386.18,253.777z"/>
	<path style="fill:none;stroke:#002B3E;stroke-width:4.4056;stroke-miterlimit:10;" d="M1431.246,222.512
		c77.398,111.559,49.719,264.738-61.844,342.141c-111.555,77.406-264.742,49.719-342.145-61.836
		c-77.402-111.563-49.715-264.746,61.848-342.148C1200.66,83.266,1353.844,110.949,1431.246,222.512z"/>
	<g>
		
			<rect x="1229.951" y="258.033" transform="matrix(0.0031 -1 1 0.0031 914.3233 1545.7159)" style="fill:#878A94;" width="4.865" height="112.53"/>
		
			<rect x="1229.746" y="325.756" transform="matrix(0.003 -1 1 0.003 846.4355 1613.042)" style="fill:#878A94;" width="4.863" height="112.536"/>
		<g>
			
				<rect x="1226.063" y="333.634" transform="matrix(0.0031 -1 1 0.0031 873.8123 1586.8412)" style="fill:#050B1F;" width="13.428" height="43.063"/>
			<polygon style="fill:#A1A4BE;" points="1234.836,477.543 1229.977,477.523 1230.047,454.258 1234.906,454.27 			"/>
			<polygon style="fill:#232839;" points="1234.895,458.09 1230.035,458.078 1230.109,432.031 1234.977,432.047 			"/>
			<polygon style="fill:#C9CBDD;" points="1264.328,429.008 1264.504,374.137 1254.461,361.949 1209.66,361.809 1200.938,373.938 
				1200.773,428.813 			"/>
			
				<rect x="1220.606" y="385.149" transform="matrix(0.0029 -1 1 0.0029 812.0395 1648.2864)" style="fill:#A1A4BE;" width="23.963" height="63.559"/>
			
				<rect x="1227.789" y="392.357" transform="matrix(0.0033 -1 1 0.0033 804.3962 1655.3032)" style="fill:#8285A4;" width="9.553" height="63.553"/>
			<polygon style="fill:#F7F8FC;" points="1254.461,361.949 1209.66,361.809 1200.938,373.938 1264.504,374.137 			"/>
			<polygon style="fill:#64688B;" points="1258.043,439.406 1206.992,439.254 1200.773,428.813 1264.328,429.008 			"/>
			
				<rect x="1209.632" y="282.983" transform="matrix(0.0031 -1 1 0.0031 914.3135 1546.6819)" style="fill:#C9CBDD;" width="46.541" height="63.559"/>
			<polygon style="fill:#A1A4BE;" points="1201.125,313.969 1201.051,337.938 1264.609,338.129 1264.68,314.168 			"/>
			<polygon style="fill:#8285A4;" points="1201.086,328.383 1201.051,337.938 1264.609,338.129 1264.633,328.578 			"/>
			<polygon style="fill:#64688B;" points="1258.32,348.527 1207.27,348.375 1201.051,337.938 1264.609,338.129 			"/>
			<polygon style="fill:#232839;" points="1258.035,444.965 1206.969,444.813 1206.992,439.254 1258.043,439.406 			"/>
			<path style="fill:#C9CBDD;" d="M1283.094,468.75c-7.723-12.305-27.445-21.102-50.598-21.168
				c-23.152-0.074-42.93,8.598-50.723,20.852L1283.094,468.75z"/>
			<path style="fill:#A1A4BE;" d="M1233.941,447.598c-0.484-0.008-0.965-0.016-1.445-0.016c-23.152-0.074-42.93,8.598-50.723,20.852
				l34.406,0.109C1217.895,459.129,1225.133,452.391,1233.941,447.598z"/>
			<path style="fill:#C9CBDD;" d="M1237.258,479.285c-0.008,2.688-2.188,4.859-4.871,4.848c-2.688-0.008-4.859-2.195-4.848-4.875
				c0-2.684,2.188-4.859,4.871-4.848C1235.102,474.418,1237.27,476.602,1237.258,479.285z"/>
			<path style="fill:#232839;" d="M1261.938,357.457c0.008,0.383-0.305,0.688-0.688,0.691l-56.957-0.176
				c-0.387,0-0.695-0.313-0.695-0.699l0.012-4.16c0-0.387,0.313-0.699,0.699-0.699l56.957,0.176c0.391,0,0.691,0.309,0.684,0.699
				L1261.938,357.457z"/>
			<polygon style="fill:#A1A4BE;" points="1258.555,291.574 1207.383,291.418 1211.367,278.23 1254.66,278.359 			"/>
			<polygon style="fill:#7E819D;" points="1251.992,278.355 1214.027,278.23 1214.047,270.824 1252.023,270.945 			"/>
		</g>
		<g>
			
				<rect x="1351.81" y="230.699" transform="matrix(0.0031 -1 1 0.0031 1045.2363 1746.3491)" style="fill:#FFFFFF;" width="93.309" height="236.517"/>
			<polygon style="fill:#5E8BC8;" points="1510.344,391.742 1286.324,391.059 1286.59,306.176 1510.598,306.855 			"/>
			<polygon style="fill:#FFFFFF;" points="1401.629,394.004 1396.422,393.988 1396.68,306.508 1401.902,306.523 			"/>
			
				<rect x="1258.248" y="347.619" transform="matrix(0.0037 -1 1 0.0037 947.163 1648.0382)" style="fill:#FFFFFF;" width="84.891" height="2.082"/>
			<polygon style="fill:#FFFFFF;" points="1315.5,391.152 1313.414,391.141 1313.676,306.258 1315.758,306.258 			"/>
			<polygon style="fill:#FFFFFF;" points="1329.402,391.191 1327.305,391.188 1327.574,306.301 1329.648,306.301 			"/>
			
				<rect x="1299.929" y="347.746" transform="matrix(0.0037 -1 1 0.0037 988.5616 1689.8441)" style="fill:#FFFFFF;" width="84.889" height="2.08"/>
			
				<rect x="1313.824" y="347.789" transform="matrix(0.0056 -1 1 0.0056 999.8073 1703.1102)" style="fill:#FFFFFF;" width="84.885" height="2.08"/>
			<polygon style="fill:#FFFFFF;" points="1371.074,391.316 1368.984,391.313 1369.25,306.426 1371.328,306.43 			"/>
			
				<rect x="1341.61" y="347.87" transform="matrix(0.0037 -1 1 0.0037 1029.9589 1731.6489)" style="fill:#FFFFFF;" width="84.887" height="2.084"/>
			
				<rect x="1369.391" y="347.958" transform="matrix(0.0056 -1 1 0.0056 1054.8938 1758.8477)" style="fill:#FFFFFF;" width="84.889" height="2.082"/>
			
				<rect x="1383.285" y="347.998" transform="matrix(0.0037 -1 1 0.0037 1071.3666 1773.4568)" style="fill:#FFFFFF;" width="84.885" height="2.088"/>
			<polygon style="fill:#FFFFFF;" points="1440.535,391.531 1438.449,391.527 1438.711,306.641 1440.789,306.645 			"/>
			<polygon style="fill:#FFFFFF;" points="1454.426,391.574 1452.336,391.57 1452.602,306.684 1454.684,306.688 			"/>
			<polygon style="fill:#FFFFFF;" points="1468.32,391.613 1466.238,391.609 1466.492,306.719 1468.574,306.73 			"/>
			<polygon style="fill:#FFFFFF;" points="1482.211,391.656 1480.121,391.652 1480.383,306.766 1482.473,306.77 			"/>
			
				<rect x="1452.747" y="348.212" transform="matrix(0.0019 -1 1 0.0019 1143.1384 1843.7876)" style="fill:#FFFFFF;" width="84.889" height="2.082"/>
			
				<rect x="1397.508" y="209.746" transform="matrix(0.0031 -1 1 0.0031 1072.5305 1719.3104)" style="fill:#FFFFFF;" width="2.08" height="224.011"/>
			<polygon style="fill:#FFFFFF;" points="1510.504,340.961 1286.484,340.285 1286.488,338.195 1510.504,338.883 			"/>
			<polygon style="fill:#FFFFFF;" points="1510.441,358.797 1286.426,358.109 1286.438,356.027 1510.445,356.711 			"/>
			<polygon style="fill:#FFFFFF;" points="1510.391,376.625 1286.371,375.934 1286.375,373.852 1510.402,374.535 			"/>
		</g>
		<g>
			
				<rect x="1021.864" y="229.688" transform="matrix(0.0031 -1 1 0.0031 717.3104 1415.3997)" style="fill:#FFFFFF;" width="93.313" height="236.519"/>
			
				<rect x="1026.08" y="235.943" transform="matrix(0.0031 -1 1 0.0031 717.2946 1415.3978)" style="fill:#5E8BC8;" width="84.883" height="224.013"/>
			
				<rect x="1025.476" y="346.643" transform="matrix(0.0037 -1 1 0.0037 715.967 1417.1436)" style="fill:#FFFFFF;" width="87.475" height="5.205"/>
			<polygon style="fill:#FFFFFF;" points="971.668,390.094 969.578,390.09 969.848,305.203 971.922,305.215 			"/>
			<polygon style="fill:#FFFFFF;" points="985.555,390.145 983.473,390.133 983.734,305.242 985.82,305.254 			"/>
			<polygon style="fill:#FFFFFF;" points="999.453,390.18 997.371,390.176 997.625,305.293 999.707,305.297 			"/>
			<polygon style="fill:#FFFFFF;" points="1013.34,390.223 1011.258,390.215 1011.519,305.336 1013.602,305.336 			"/>
			
				<rect x="983.876" y="346.776" transform="matrix(0.0019 -1 1 0.0019 676.5828 1373.4875)" style="fill:#FFFFFF;" width="84.889" height="2.086"/>
			<polygon style="fill:#FFFFFF;" points="1041.125,390.309 1039.039,390.305 1039.301,305.422 1041.391,305.422 			"/>
			
				<rect x="1011.666" y="346.867" transform="matrix(0.0038 -1 1 0.0038 702.1965 1400.6835)" style="fill:#FFFFFF;" width="84.883" height="2.078"/>
			
				<rect x="1039.449" y="346.951" transform="matrix(0.0019 -1 1 0.0019 731.8688 1429.2247)" style="fill:#FFFFFF;" width="84.885" height="2.076"/>
			
				<rect x="1053.343" y="346.989" transform="matrix(0.0037 -1 1 0.0037 743.6578 1442.5103)" style="fill:#FFFFFF;" width="84.887" height="2.088"/>
			
				<rect x="1067.23" y="347.033" transform="matrix(0.0019 -1 1 0.0019 759.5236 1457.098)" style="fill:#FFFFFF;" width="84.893" height="2.084"/>
			<polygon style="fill:#FFFFFF;" points="1124.484,390.563 1122.398,390.559 1122.66,305.672 1124.738,305.676 			"/>
			<polygon style="fill:#FFFFFF;" points="1138.375,390.605 1136.289,390.602 1136.551,305.711 1138.633,305.715 			"/>
			<polygon style="fill:#FFFFFF;" points="1152.266,390.648 1150.18,390.648 1150.445,305.758 1152.523,305.762 			"/>
			<polygon style="fill:#FFFFFF;" points="1166.152,390.695 1164.078,390.688 1164.332,305.801 1166.414,305.809 			"/>
			<polygon style="fill:#FFFFFF;" points="1180.613,322.125 956.594,321.441 956.598,319.359 1180.613,320.043 			"/>
			<polygon style="fill:#FFFFFF;" points="1180.551,339.961 956.543,339.266 956.543,337.191 1180.559,337.875 			"/>
			<polygon style="fill:#FFFFFF;" points="1180.5,357.785 956.484,357.098 956.488,355.016 1180.512,355.703 			"/>
			<polygon style="fill:#FFFFFF;" points="1180.441,375.617 956.43,374.926 956.434,372.844 1180.453,373.527 			"/>
		</g>
	</g>
</g>
<g>
	<g>
		<path style="fill:#3F6461;" d="M1943.27,692.938l59.961-59.961l93.813,93.805l-0.078,0.086c0.141,0.082,0.305,0.141,0.418,0.258
			c3.563,3.559-6.973,19.867-23.535,36.426s-32.867,27.098-36.426,23.539c-0.113-0.113-0.176-0.277-0.262-0.426l-0.078,0.086
			L1943.27,692.938z"/>
		<g>
			<polygon style="fill:#7AC2BC;" points="1960.242,1099.77 2014.902,1099.77 2002.977,721.309 1972.168,721.309 			"/>
			<polygon style="fill:#C7E7E4;" points="1987.57,1099.77 1960.242,1099.77 1972.168,721.309 1987.57,721.309 			"/>
		</g>
		<path style="fill:#557977;" d="M1915.863,650.734c-8.707,33.648,11.523,67.992,45.168,76.691
			c33.648,8.707,67.988-11.52,76.695-45.172c8.699-33.648-11.52-67.988-45.176-76.691
			C1958.906,596.859,1924.563,617.082,1915.863,650.734z"/>
		<g>
			<path style="fill:#C7E7E4;" d="M1718.695,746.769l175.348-172.367l165.801-181.566c0,0,118.535,75.602-70.402,273.523
				C1798.609,862.445,1718.695,746.769,1718.695,746.769z"/>
			<path style="fill:#A0C7C4;" d="M1971.098,649.418c137.633-144.184,112.094-223.441,88.082-255.852l0.664-0.73
				c0,0,118.535,75.602-70.402,273.523c-185.715,190.824-266.375,86.402-270.57,80.66
				C1752.285,769.766,1832.391,791.93,1971.098,649.418z"/>
			<path style="fill:#729A98;" d="M1718.695,746.769c11.91,11.469,62.684-20.691,125.793-76.781
				c2.242-2.004,4.512-4.012,6.801-6.102c21.566-19.461,44.422-41.559,67.551-65.566c24.543-25.481,46.988-50.563,66.449-74
				c1.902-2.262,3.754-4.527,5.582-6.75c51.773-63.348,80.633-113.492,68.973-124.742c-13.621-13.137-78.332,31.027-154.16,102.836
				c-2.246,2.125-4.504,4.293-6.773,6.477c-12.863,12.344-26,25.441-39.219,39.156c-9.934,10.316-19.531,20.57-28.715,30.668
				c-2.211,2.426-4.391,4.848-6.566,7.254C1750.316,661.801,1704.504,733.094,1718.695,746.769z"/>
		</g>
	</g>
	<path style="fill:#334245;" d="M1783.352,473.957c0,12.078,9.793,21.863,21.863,21.863c12.074,0,21.863-9.785,21.863-21.863
		c0-12.074-9.789-21.859-21.863-21.859C1793.145,452.098,1783.352,461.883,1783.352,473.957z"/>
	<g>
		<path style="fill:#334245;" d="M1799.93,468.492l24.48,110.727l20.078,90.77c2.242-2.004,4.512-4.012,6.801-6.102l-20.313-91.922
			l-20.473-92.543l88.406,22.719l86.379,22.18c1.902-2.262,3.754-4.527,5.582-6.75l-85.188-21.906L1799.93,468.492z"/>
	</g>
</g>
<path style="fill:#FFFFFF;" d="M176.77,403.852h438.774c0,0-8.504-44.438-116.699-30.914c0,0-20.703-61.828-76.043-32.844
	c0,0-94.551-79.223-161.891,28.012C260.91,368.105,187.023,340.094,176.77,403.852z"/>
<g>
	
		<ellipse transform="matrix(1 -0.0032 0.0032 1 -1.4881 1.7229)" style="fill:none;stroke:#000001;stroke-width:6.5463;stroke-miterlimit:10;" cx="538.766" cy="466.844" rx="86.559" ry="86.555"/>
	
		<ellipse transform="matrix(0.7071 -0.7071 0.7071 0.7071 -172.3076 517.7001)" style="fill:none;stroke:#000001;stroke-width:6.5463;stroke-miterlimit:10;" cx="538.766" cy="466.844" rx="150.637" ry="150.637"/>
	
		<ellipse transform="matrix(1 -0.0033 0.0033 1 -1.5175 1.757)" style="fill:none;stroke:#000001;stroke-width:6.5463;stroke-miterlimit:10;" cx="538.766" cy="466.844" rx="236.473" ry="236.469"/>
	<g>
		<g>
			<path style="fill:none;stroke:#000001;stroke-width:10.9105;stroke-miterlimit:10;" d="M538.766,466.844l-168.023,780.102
				L538.766,466.844z"/>
			<path style="fill:none;stroke:#000001;stroke-width:10.9105;stroke-miterlimit:10;" d="M538.766,466.844l168.023,780.102
				L538.766,466.844z"/>
			
				<line style="fill:none;stroke:#000001;stroke-width:10.9105;stroke-miterlimit:10;" x1="538.766" y1="1272.039" x2="538.766" y2="466.844"/>
			<g>
				<g>
					
						<line style="fill:none;stroke:#000001;stroke-width:10.9105;stroke-miterlimit:10;" x1="538.766" y1="645.777" x2="504.457" y2="626.125"/>
					
						<line style="fill:none;stroke:#000001;stroke-width:10.9105;stroke-miterlimit:10;" x1="538.766" y1="730.879" x2="488.141" y2="701.891"/>
					
						<line style="fill:none;stroke:#000001;stroke-width:10.9105;stroke-miterlimit:10;" x1="538.766" y1="815.981" x2="471.824" y2="777.644"/>
					
						<line style="fill:none;stroke:#000001;stroke-width:10.9105;stroke-miterlimit:10;" x1="538.766" y1="901.086" x2="454.754" y2="852.969"/>
					
						<line style="fill:none;stroke:#000001;stroke-width:10.9105;stroke-miterlimit:10;" x1="538.766" y1="986.184" x2="439.188" y2="929.16"/>
					
						<line style="fill:none;stroke:#000001;stroke-width:10.9105;stroke-miterlimit:10;" x1="538.766" y1="1071.285" x2="422.871" y2="1004.922"/>
					
						<line style="fill:none;stroke:#000001;stroke-width:10.9105;stroke-miterlimit:10;" x1="538.766" y1="1156.391" x2="406.715" y2="1079.934"/>
					
						<line style="fill:none;stroke:#000001;stroke-width:10.9105;stroke-miterlimit:10;" x1="538.766" y1="1241.496" x2="388.129" y2="1156.391"/>
				</g>
				<g>
					
						<line style="fill:none;stroke:#000001;stroke-width:10.9105;stroke-miterlimit:10;" x1="504.457" y1="641.5" x2="538.766" y2="621.852"/>
					
						<line style="fill:none;stroke:#000001;stroke-width:10.9105;stroke-miterlimit:10;" x1="481.898" y1="730.879" x2="538.766" y2="695.344"/>
					
						<line style="fill:none;stroke:#000001;stroke-width:10.9105;stroke-miterlimit:10;" x1="462.98" y1="818.707" x2="538.766" y2="784.344"/>
					
						<line style="fill:none;stroke:#000001;stroke-width:10.9105;stroke-miterlimit:10;" x1="449.844" y1="890.273" x2="538.766" y2="842.172"/>
					
						<line style="fill:none;stroke:#000001;stroke-width:10.9105;stroke-miterlimit:10;" x1="427.73" y1="977.746" x2="538.766" y2="929.16"/>
					
						<line style="fill:none;stroke:#000001;stroke-width:10.9105;stroke-miterlimit:10;" x1="411.66" y1="1059.285" x2="538.766" y2="1011.285"/>
					
						<line style="fill:none;stroke:#000001;stroke-width:10.9105;stroke-miterlimit:10;" x1="388.129" y1="1152.57" x2="538.766" y2="1092.02"/>
					
						<line style="fill:none;stroke:#000001;stroke-width:10.9105;stroke-miterlimit:10;" x1="373.398" y1="1234.625" x2="538.766" y2="1166.754"/>
				</g>
			</g>
			<g>
				<g>
					
						<line style="fill:none;stroke:#000001;stroke-width:10.9105;stroke-miterlimit:10;" x1="539.313" y1="643.266" x2="573.617" y2="623.621"/>
					
						<line style="fill:none;stroke:#000001;stroke-width:10.9105;stroke-miterlimit:10;" x1="539.313" y1="728.367" x2="589.938" y2="699.379"/>
					
						<line style="fill:none;stroke:#000001;stroke-width:10.9105;stroke-miterlimit:10;" x1="539.313" y1="813.473" x2="606.254" y2="775.141"/>
					
						<line style="fill:none;stroke:#000001;stroke-width:10.9105;stroke-miterlimit:10;" x1="539.313" y1="898.578" x2="623.32" y2="850.469"/>
					
						<line style="fill:none;stroke:#000001;stroke-width:10.9105;stroke-miterlimit:10;" x1="539.313" y1="983.676" x2="638.887" y2="926.652"/>
					
						<line style="fill:none;stroke:#000001;stroke-width:10.9105;stroke-miterlimit:10;" x1="539.313" y1="1068.777" x2="655.203" y2="1002.406"/>
					
						<line style="fill:none;stroke:#000001;stroke-width:10.9105;stroke-miterlimit:10;" x1="539.313" y1="1153.883" x2="671.355" y2="1077.434"/>
					
						<line style="fill:none;stroke:#000001;stroke-width:10.9105;stroke-miterlimit:10;" x1="539.313" y1="1238.98" x2="689.953" y2="1153.883"/>
				</g>
				<g>
					
						<line style="fill:none;stroke:#000001;stroke-width:10.9105;stroke-miterlimit:10;" x1="573.617" y1="638.988" x2="539.313" y2="619.344"/>
					
						<line style="fill:none;stroke:#000001;stroke-width:10.9105;stroke-miterlimit:10;" x1="596.18" y1="728.367" x2="539.313" y2="692.836"/>
					
						<line style="fill:none;stroke:#000001;stroke-width:10.9105;stroke-miterlimit:10;" x1="615.098" y1="816.199" x2="539.313" y2="781.828"/>
					
						<line style="fill:none;stroke:#000001;stroke-width:10.9105;stroke-miterlimit:10;" x1="628.23" y1="887.766" x2="539.313" y2="839.656"/>
					
						<line style="fill:none;stroke:#000001;stroke-width:10.9105;stroke-miterlimit:10;" x1="650.344" y1="975.238" x2="539.313" y2="926.652"/>
					
						<line style="fill:none;stroke:#000001;stroke-width:10.9105;stroke-miterlimit:10;" x1="666.418" y1="1056.77" x2="539.313" y2="1008.77"/>
					
						<line style="fill:none;stroke:#000001;stroke-width:10.9105;stroke-miterlimit:10;" x1="689.953" y1="1150.063" x2="539.313" y2="1089.512"/>
					
						<line style="fill:none;stroke:#000001;stroke-width:10.9105;stroke-miterlimit:10;" x1="704.68" y1="1232.109" x2="539.313" y2="1164.246"/>
				</g>
			</g>
		</g>
	</g>
	<path style="fill:#000001;" d="M558.406,466.844c0,10.848-8.797,19.637-19.641,19.637c-10.844,0-19.641-8.789-19.641-19.637
		c0-10.848,8.797-19.641,19.641-19.641C549.609,447.203,558.406,455.996,558.406,466.844z"/>
</g>
<path style="fill:#C5DA52;" d="M2224.121,1561.848c0,28.438-23.051,51.496-51.492,51.496H228.438
	c-28.441,0-51.496-23.059-51.496-51.496l0,0c0-28.441,23.055-51.5,51.496-51.5h1944.191
	C2201.07,1510.348,2224.121,1533.406,2224.121,1561.848L2224.121,1561.848z"/>
<g>
	<g>
		<g>
			<rect x="910.871" y="650.426" style="fill:#739496;" width="395.773" height="39.199"/>
			<rect x="910.871" y="650.426" style="fill:#547677;" width="156.754" height="39.199"/>
		</g>
		<g>
			<rect x="1064.734" y="702.367" style="fill:#FFFFFF;" width="250.566" height="774.555"/>
			<rect x="900.09" y="702.367" style="fill:#BAD2DB;" width="164.645" height="774.555"/>
			<rect x="1083.359" y="735.691" style="fill:#00415E;" width="223.449" height="48.016"/>
			<rect x="1083.359" y="810.172" style="fill:#00415E;" width="223.449" height="48.023"/>
			<rect x="1083.359" y="884.656" style="fill:#00415E;" width="223.449" height="48.02"/>
			<rect x="1083.359" y="959.141" style="fill:#00415E;" width="223.449" height="48.016"/>
			<rect x="1083.359" y="1033.621" style="fill:#00415E;" width="223.449" height="48.023"/>
			<rect x="1083.359" y="1108.102" style="fill:#00415E;" width="223.449" height="48.023"/>
			<rect x="1083.359" y="1182.594" style="fill:#00415E;" width="223.449" height="48.012"/>
			<rect x="1083.359" y="1257.074" style="fill:#00415E;" width="223.449" height="48.016"/>
			<rect x="1083.359" y="1331.555" style="fill:#00415E;" width="223.449" height="48.023"/>
			<rect x="1083.359" y="1406.035" style="fill:#00415E;" width="223.449" height="48.023"/>
			<polygon style="fill:#002B3E;" points="1083.359,1139.145 1306.809,1121.605 1306.809,1108.102 1083.359,1108.102 			"/>
			<polygon style="fill:#002B3E;" points="1083.359,1213.625 1306.809,1196.086 1306.809,1182.594 1083.359,1182.594 			"/>
			<polygon style="fill:#002B3E;" points="1083.359,1288.105 1306.809,1270.574 1306.809,1257.074 1083.359,1257.074 			"/>
			<polygon style="fill:#002B3E;" points="1083.359,1362.59 1306.809,1345.059 1306.809,1331.555 1083.359,1331.555 			"/>
			<polygon style="fill:#002B3E;" points="1083.359,1437.07 1306.809,1419.539 1306.809,1406.035 1083.359,1406.035 			"/>
		</g>
		<polygon style="fill:#002B3E;" points="1083.359,766.727 1306.809,749.195 1306.809,735.691 1083.359,735.691 		"/>
		<polygon style="fill:#002B3E;" points="1083.359,841.207 1306.809,823.672 1306.809,810.172 1083.359,810.172 		"/>
		<polygon style="fill:#002B3E;" points="1083.359,915.688 1306.809,898.16 1306.809,884.656 1083.359,884.656 		"/>
		<polygon style="fill:#002B3E;" points="1083.359,990.168 1306.809,972.645 1306.809,959.141 1083.359,959.141 		"/>
		<polygon style="fill:#002B3E;" points="1083.359,1064.66 1306.809,1047.125 1306.809,1033.621 1083.359,1033.621 		"/>
		<rect x="910.871" y="735.691" style="fill:#002B3E;" width="142.43" height="48.016"/>
		<rect x="910.871" y="810.172" style="fill:#002B3E;" width="142.43" height="48.023"/>
		<rect x="910.871" y="884.656" style="fill:#002B3E;" width="142.43" height="48.02"/>
		<rect x="910.871" y="959.141" style="fill:#002B3E;" width="142.43" height="48.016"/>
		<rect x="910.871" y="1033.621" style="fill:#002B3E;" width="142.43" height="48.023"/>
		<rect x="910.871" y="1108.102" style="fill:#002B3E;" width="142.43" height="48.023"/>
		<rect x="910.871" y="1182.594" style="fill:#002B3E;" width="142.43" height="48.012"/>
		<rect x="910.871" y="1257.074" style="fill:#002B3E;" width="142.43" height="48.016"/>
		<rect x="910.871" y="1331.555" style="fill:#002B3E;" width="142.43" height="48.023"/>
		<rect x="910.871" y="1406.035" style="fill:#002B3E;" width="142.43" height="48.023"/>
		<rect x="892.25" y="683.746" style="fill:#9FBBBE;" width="433.012" height="39.203"/>
		<rect x="892.25" y="683.746" style="fill:#83A2A4;" width="171.508" height="39.203"/>
	</g>
	<g>
		<g>
			<rect x="1629.242" y="854.273" style="fill:#1699A8;" width="189.145" height="622.648"/>
			<rect x="1710.586" y="854.273" style="fill:#03B6D3;" width="189.148" height="622.648"/>
			<g>
				<rect x="1723.813" y="899.352" style="fill:#00415E;" width="26.977" height="270.492"/>
				<rect x="1758.762" y="899.352" style="fill:#00415E;" width="26.984" height="270.492"/>
				<rect x="1793.715" y="899.352" style="fill:#00415E;" width="26.973" height="270.492"/>
				<rect x="1828.656" y="899.352" style="fill:#00415E;" width="26.976" height="270.492"/>
				<rect x="1863.609" y="899.352" style="fill:#00415E;" width="26.973" height="270.492"/>
			</g>
			<g>
				<rect x="1723.813" y="1186.203" style="fill:#00415E;" width="26.977" height="270.492"/>
				<rect x="1758.762" y="1186.203" style="fill:#00415E;" width="26.984" height="270.492"/>
				<rect x="1793.715" y="1186.203" style="fill:#00415E;" width="26.973" height="270.492"/>
				<rect x="1828.656" y="1186.203" style="fill:#00415E;" width="26.976" height="270.492"/>
				<rect x="1863.609" y="1186.203" style="fill:#00415E;" width="26.973" height="270.492"/>
			</g>
			<rect x="1623.848" y="843.496" style="fill:#FFFFFF;" width="281.27" height="30.375"/>
			<rect x="1623.848" y="843.496" style="fill:#8FB7C2;" width="87.223" height="30.375"/>
		</g>
		<g>
			<rect x="1634.141" y="899.352" style="fill:#00415E;" width="13.719" height="266.25"/>
			<rect x="1652.762" y="899.352" style="fill:#00415E;" width="13.723" height="266.25"/>
			<rect x="1671.387" y="899.352" style="fill:#00415E;" width="13.719" height="266.25"/>
			<rect x="1690.008" y="899.352" style="fill:#00415E;" width="13.715" height="266.25"/>
		</g>
		<g>
			<rect x="1634.141" y="1188.328" style="fill:#00415E;" width="13.719" height="266.246"/>
			<rect x="1652.762" y="1188.328" style="fill:#00415E;" width="13.723" height="266.246"/>
			<rect x="1671.387" y="1188.328" style="fill:#00415E;" width="13.719" height="266.246"/>
			<rect x="1690.008" y="1188.328" style="fill:#00415E;" width="13.715" height="266.246"/>
		</g>
	</g>
	<g>
		<rect x="1864.469" y="1059.102" style="fill:#DBC9C7;" width="189.109" height="19.633"/>
		<rect x="1864.469" y="1073.566" style="fill:#77B0CE;" width="189.109" height="403.355"/>
		<rect x="1858.789" y="1073.566" style="fill:#FFFFFF;" width="200.469" height="19.637"/>
		<g>
			<g>
				<rect x="1888.5" y="1106.633" style="fill:#00415E;" width="27.898" height="79.57"/>
				<rect x="1926.215" y="1106.633" style="fill:#00415E;" width="27.902" height="79.57"/>
				<rect x="1963.93" y="1106.633" style="fill:#00415E;" width="27.902" height="79.57"/>
				<rect x="2001.652" y="1106.633" style="fill:#00415E;" width="27.895" height="79.57"/>
			</g>
		</g>
		<g>
			<g>
				<rect x="1888.5" y="1197.914" style="fill:#00415E;" width="27.898" height="79.57"/>
				<rect x="1926.215" y="1197.914" style="fill:#00415E;" width="27.902" height="79.57"/>
				<rect x="1963.93" y="1197.914" style="fill:#00415E;" width="27.902" height="79.57"/>
				<rect x="2001.652" y="1197.914" style="fill:#00415E;" width="27.895" height="79.57"/>
			</g>
		</g>
		<g>
			<g>
				<rect x="1888.5" y="1289.191" style="fill:#00415E;" width="27.898" height="79.574"/>
				<rect x="1926.215" y="1289.191" style="fill:#00415E;" width="27.902" height="79.574"/>
				<rect x="1963.93" y="1289.191" style="fill:#00415E;" width="27.902" height="79.574"/>
				<rect x="2001.652" y="1289.191" style="fill:#00415E;" width="27.895" height="79.574"/>
			</g>
		</g>
		<g>
			<g>
				<rect x="1888.5" y="1380.473" style="fill:#00415E;" width="27.898" height="79.57"/>
				<rect x="1926.215" y="1380.473" style="fill:#00415E;" width="27.902" height="79.57"/>
				<rect x="1963.93" y="1380.473" style="fill:#00415E;" width="27.902" height="79.57"/>
				<rect x="2001.652" y="1380.473" style="fill:#00415E;" width="27.895" height="79.57"/>
			</g>
		</g>
	</g>
	<g>
		<rect x="2127.75" y="1206.758" style="fill:#FFFFFF;" width="118.266" height="6.859"/>
		<rect x="2124.813" y="1213.617" style="fill:#00415E;" width="123.82" height="263.305"/>
		<rect x="2132.652" y="1228.645" style="fill:#03B6D3;" width="67.957" height="7.191"/>
		<rect x="2132.652" y="1242.859" style="fill:#03B6D3;" width="67.957" height="7.188"/>
		<rect x="2132.652" y="1257.066" style="fill:#03B6D3;" width="67.957" height="7.191"/>
		<rect x="2132.652" y="1271.281" style="fill:#03B6D3;" width="67.957" height="7.184"/>
		<rect x="2132.652" y="1285.488" style="fill:#03B6D3;" width="67.957" height="7.191"/>
		<rect x="2132.652" y="1299.695" style="fill:#03B6D3;" width="67.957" height="7.191"/>
		<rect x="2132.652" y="1313.91" style="fill:#03B6D3;" width="67.957" height="7.183"/>
		<rect x="2132.652" y="1328.125" style="fill:#03B6D3;" width="67.957" height="7.184"/>
		<rect x="2132.652" y="1342.332" style="fill:#03B6D3;" width="67.957" height="7.188"/>
		<rect x="2132.652" y="1356.539" style="fill:#03B6D3;" width="67.957" height="7.188"/>
		<rect x="2132.652" y="1370.754" style="fill:#03B6D3;" width="67.957" height="7.188"/>
		<rect x="2132.652" y="1384.965" style="fill:#03B6D3;" width="67.957" height="7.184"/>
		<rect x="2132.652" y="1399.176" style="fill:#03B6D3;" width="67.957" height="7.188"/>
		<rect x="2132.652" y="1413.387" style="fill:#03B6D3;" width="67.957" height="7.184"/>
		<rect x="2132.652" y="1427.598" style="fill:#03B6D3;" width="67.957" height="7.18"/>
		<rect x="2132.652" y="1441.809" style="fill:#03B6D3;" width="67.957" height="7.184"/>
		<rect x="2132.652" y="1456.016" style="fill:#03B6D3;" width="67.957" height="7.191"/>
		<rect x="2207.141" y="1228.645" style="fill:#03B6D3;" width="33.973" height="7.191"/>
		<rect x="2207.141" y="1242.859" style="fill:#03B6D3;" width="33.973" height="7.188"/>
		<rect x="2207.141" y="1257.066" style="fill:#03B6D3;" width="33.973" height="7.191"/>
		<rect x="2207.141" y="1271.281" style="fill:#03B6D3;" width="33.973" height="7.184"/>
		<rect x="2207.141" y="1285.488" style="fill:#03B6D3;" width="33.973" height="7.191"/>
		<rect x="2207.141" y="1299.695" style="fill:#03B6D3;" width="33.973" height="7.191"/>
		<rect x="2207.141" y="1313.91" style="fill:#03B6D3;" width="33.973" height="7.183"/>
		<rect x="2207.141" y="1328.125" style="fill:#03B6D3;" width="33.973" height="7.184"/>
		<rect x="2207.141" y="1342.332" style="fill:#03B6D3;" width="33.973" height="7.188"/>
		<rect x="2207.141" y="1356.539" style="fill:#03B6D3;" width="33.973" height="7.188"/>
		<rect x="2207.141" y="1370.754" style="fill:#03B6D3;" width="33.973" height="7.188"/>
		<rect x="2207.141" y="1384.965" style="fill:#03B6D3;" width="33.973" height="7.184"/>
		<rect x="2207.141" y="1399.176" style="fill:#03B6D3;" width="33.973" height="7.188"/>
		<rect x="2207.141" y="1413.387" style="fill:#03B6D3;" width="33.973" height="7.184"/>
		<rect x="2207.141" y="1427.598" style="fill:#03B6D3;" width="33.973" height="7.18"/>
		<rect x="2207.141" y="1441.809" style="fill:#03B6D3;" width="33.973" height="7.184"/>
		<rect x="2207.141" y="1456.016" style="fill:#03B6D3;" width="33.973" height="7.191"/>
		<rect x="2123.508" y="1211.988" style="fill:#002537;" width="126.754" height="8.824"/>
	</g>
	<g>
		<rect x="1933.059" y="1316.191" style="fill:#4D729F;" width="91.133" height="160.73"/>
		<rect x="2024.191" y="1316.191" style="fill:#6D8EC0;" width="162.695" height="160.73"/>
		<rect x="2037.918" y="1334" style="fill:#A7DDE7;" width="136.227" height="130.18"/>
		<g>
			<g>
				<rect x="2036.941" y="1341.023" style="fill:#6D8EC0;" width="138.184" height="7.027"/>
				<rect x="2036.941" y="1362.34" style="fill:#6D8EC0;" width="138.184" height="7.027"/>
				<rect x="2036.941" y="1383.652" style="fill:#6D8EC0;" width="138.184" height="7.027"/>
				<rect x="2036.941" y="1404.973" style="fill:#6D8EC0;" width="138.184" height="7.016"/>
				<rect x="2036.941" y="1426.289" style="fill:#6D8EC0;" width="138.184" height="7.019"/>
			</g>
			<rect x="2036.941" y="1447.602" style="fill:#6D8EC0;" width="138.184" height="7.023"/>
		</g>
		<rect x="1929.129" y="1305.578" style="fill:#FFFFFF;" width="261.676" height="10.613"/>
	</g>
	<g>
		<polygon style="fill:#5E8485;" points="1568.805,965.828 1409.055,965.828 1409.055,934.641 1536.949,885.469 1568.805,885.469 		
			"/>
		<polygon style="fill:#7DA1A4;" points="1602.781,986.09 1387.66,986.09 1387.66,967.301 1570.93,916.344 1602.781,916.344 		"/>
		<rect x="1380.797" y="983.637" style="fill:#FFFFFF;" width="227.367" height="493.285"/>
		<rect x="1376.391" y="973.84" style="fill:#9FBBBE;" width="235.867" height="40.504"/>
		<g>
			<g>
				<rect x="1569.281" y="1029.375" style="fill:#03B6D3;" width="26.809" height="57.555"/>
				<polygon style="fill:#70CCDD;" points="1569.281,1053.234 1596.09,1044.43 1596.09,1029.375 1569.281,1029.375 				"/>
			</g>
			<g>
				<rect x="1569.281" y="1103.324" style="fill:#03B6D3;" width="26.809" height="57.555"/>
				<polygon style="fill:#70CCDD;" points="1569.281,1127.188 1596.09,1118.379 1596.09,1103.324 1569.281,1103.324 				"/>
			</g>
			<g>
				<rect x="1569.281" y="1177.281" style="fill:#03B6D3;" width="26.809" height="57.559"/>
				<polygon style="fill:#70CCDD;" points="1569.281,1201.141 1596.09,1192.34 1596.09,1177.281 1569.281,1177.281 				"/>
			</g>
			<g>
				<rect x="1569.281" y="1251.23" style="fill:#03B6D3;" width="26.809" height="57.559"/>
				<polygon style="fill:#70CCDD;" points="1569.281,1275.098 1596.09,1266.289 1596.09,1251.23 1569.281,1251.23 				"/>
			</g>
			<g>
				<rect x="1569.281" y="1325.191" style="fill:#03B6D3;" width="26.809" height="57.551"/>
				<polygon style="fill:#70CCDD;" points="1569.281,1349.047 1596.09,1340.242 1596.09,1325.191 1569.281,1325.191 				"/>
			</g>
			<g>
				<rect x="1569.281" y="1399.141" style="fill:#03B6D3;" width="26.809" height="57.555"/>
				<polygon style="fill:#70CCDD;" points="1569.281,1423 1596.09,1414.199 1596.09,1399.141 1569.281,1399.141 				"/>
			</g>
		</g>
		<g>
			<g>
				<rect x="1395.652" y="1029.375" style="fill:#03B6D3;" width="26.809" height="57.555"/>
				<polygon style="fill:#70CCDD;" points="1395.652,1053.234 1422.461,1044.43 1422.461,1029.375 1395.652,1029.375 				"/>
			</g>
			<g>
				<rect x="1395.652" y="1103.324" style="fill:#03B6D3;" width="26.809" height="57.555"/>
				<polygon style="fill:#70CCDD;" points="1395.652,1127.188 1422.461,1118.379 1422.461,1103.324 1395.652,1103.324 				"/>
			</g>
			<g>
				<rect x="1395.652" y="1177.281" style="fill:#03B6D3;" width="26.809" height="57.559"/>
				<polygon style="fill:#70CCDD;" points="1395.652,1201.141 1422.461,1192.34 1422.461,1177.281 1395.652,1177.281 				"/>
			</g>
			<g>
				<rect x="1395.652" y="1251.23" style="fill:#03B6D3;" width="26.809" height="57.559"/>
				<polygon style="fill:#70CCDD;" points="1395.652,1275.098 1422.461,1266.289 1422.461,1251.23 1395.652,1251.23 				"/>
			</g>
			<g>
				<rect x="1395.652" y="1325.191" style="fill:#03B6D3;" width="26.809" height="57.551"/>
				<polygon style="fill:#70CCDD;" points="1395.652,1349.047 1422.461,1340.242 1422.461,1325.191 1395.652,1325.191 				"/>
			</g>
			<g>
				<rect x="1395.652" y="1399.141" style="fill:#03B6D3;" width="26.809" height="57.555"/>
				<polygon style="fill:#70CCDD;" points="1395.652,1423 1422.461,1414.199 1422.461,1399.141 1395.652,1399.141 				"/>
			</g>
		</g>
		<rect x="1434.867" y="1029.375" style="fill:#00415E;" width="55.043" height="131.504"/>
		<rect x="1500.199" y="1029.375" style="fill:#00415E;" width="55.051" height="131.504"/>
		<polygon style="opacity:0.3;fill:#70CCDD;" points="1434.867,1104.789 1489.91,1083.895 1489.91,1029.375 1434.867,1029.375 		"/>
		<polygon style="opacity:0.3;fill:#70CCDD;" points="1500.199,1079.992 1555.25,1059.102 1555.25,1029.375 1500.199,1029.375 		"/>
		<rect x="1435.027" y="1179.648" style="fill:#00415E;" width="55.047" height="131.504"/>
		<rect x="1500.363" y="1179.648" style="fill:#00415E;" width="55.051" height="131.504"/>
		<polygon style="opacity:0.3;fill:#70CCDD;" points="1435.027,1255.063 1490.074,1234.172 1490.074,1179.648 1435.027,1179.648 		
			"/>
		<polygon style="opacity:0.3;fill:#70CCDD;" points="1500.363,1230.266 1555.414,1209.371 1555.414,1179.648 1500.363,1179.648 		
			"/>
		<rect x="1435.191" y="1329.918" style="fill:#00415E;" width="55.047" height="131.512"/>
		<rect x="1500.527" y="1329.918" style="fill:#00415E;" width="55.043" height="131.512"/>
		<polygon style="opacity:0.3;fill:#70CCDD;" points="1435.191,1405.332 1490.238,1384.441 1490.238,1329.918 1435.191,1329.918 		
			"/>
		<polygon style="opacity:0.3;fill:#70CCDD;" points="1500.527,1380.539 1555.57,1359.641 1555.57,1329.918 1500.527,1329.918 		"/>
	</g>
	<g>
		<g>
			<rect x="1527.633" y="1263.164" style="fill:#77B0CE;" width="286.352" height="213.758"/>
			<rect x="1527.633" y="1263.164" style="fill:#629BB5;" width="110.242" height="213.758"/>
			<g>
				<rect x="1652.762" y="1291.332" style="fill:#FFFFFF;" width="28.16" height="28.152"/>
				<rect x="1694.855" y="1291.512" style="fill:#FFFFFF;" width="28.152" height="28.156"/>
				<rect x="1736.949" y="1291.699" style="fill:#FFFFFF;" width="28.164" height="28.156"/>
				<rect x="1779.047" y="1291.887" style="fill:#FFFFFF;" width="28.156" height="28.152"/>
			</g>
			<g>
				<rect x="1652.762" y="1333.688" style="fill:#FFFFFF;" width="28.16" height="28.16"/>
				<rect x="1694.855" y="1333.875" style="fill:#FFFFFF;" width="28.152" height="28.156"/>
				<rect x="1736.949" y="1334.055" style="fill:#FFFFFF;" width="28.164" height="28.164"/>
				<rect x="1779.047" y="1334.242" style="fill:#FFFFFF;" width="28.156" height="28.16"/>
			</g>
			<g>
				<rect x="1652.762" y="1376.047" style="fill:#FFFFFF;" width="28.16" height="28.16"/>
				<rect x="1694.855" y="1376.238" style="fill:#FFFFFF;" width="28.152" height="28.156"/>
				<rect x="1736.949" y="1376.418" style="fill:#FFFFFF;" width="28.164" height="28.156"/>
				<rect x="1779.047" y="1376.605" style="fill:#FFFFFF;" width="28.156" height="28.16"/>
			</g>
			<g>
				<rect x="1652.762" y="1418.41" style="fill:#FFFFFF;" width="28.16" height="28.16"/>
				<rect x="1694.855" y="1418.594" style="fill:#FFFFFF;" width="28.152" height="28.164"/>
				<rect x="1736.949" y="1418.781" style="fill:#FFFFFF;" width="28.164" height="28.16"/>
				<rect x="1779.047" y="1418.969" style="fill:#FFFFFF;" width="28.156" height="28.16"/>
			</g>
			<g>
				<rect x="1606.375" y="1291.332" style="fill:#9EC5D4;" width="15.352" height="28.152"/>
				<rect x="1582.191" y="1291.332" style="fill:#9EC5D4;" width="15.359" height="28.152"/>
				<rect x="1558.023" y="1291.332" style="fill:#9EC5D4;" width="15.356" height="28.152"/>
				<rect x="1533.848" y="1291.332" style="fill:#9EC5D4;" width="15.355" height="28.152"/>
			</g>
			<g>
				<rect x="1606.375" y="1333.688" style="fill:#9EC5D4;" width="15.352" height="28.16"/>
				<rect x="1582.191" y="1333.688" style="fill:#9EC5D4;" width="15.359" height="28.16"/>
				<rect x="1558.023" y="1333.688" style="fill:#9EC5D4;" width="15.356" height="28.16"/>
				<rect x="1533.848" y="1333.688" style="fill:#9EC5D4;" width="15.355" height="28.16"/>
			</g>
			<g>
				<rect x="1606.375" y="1376.047" style="fill:#9EC5D4;" width="15.352" height="28.16"/>
				<rect x="1582.191" y="1376.047" style="fill:#9EC5D4;" width="15.359" height="28.16"/>
				<rect x="1558.023" y="1376.047" style="fill:#9EC5D4;" width="15.356" height="28.16"/>
				<rect x="1533.848" y="1376.047" style="fill:#9EC5D4;" width="15.355" height="28.16"/>
			</g>
			<g>
				<rect x="1606.375" y="1418.41" style="fill:#9EC5D4;" width="15.352" height="28.16"/>
				<rect x="1582.191" y="1418.41" style="fill:#9EC5D4;" width="15.359" height="28.16"/>
				<rect x="1558.023" y="1418.41" style="fill:#9EC5D4;" width="15.356" height="28.16"/>
				<rect x="1533.848" y="1418.41" style="fill:#9EC5D4;" width="15.355" height="28.16"/>
			</g>
		</g>
		<rect x="1522.906" y="1259.031" style="fill:#FFFFFF;" width="295.48" height="16.066"/>
	</g>
	<g>
		<g>
			<rect x="1266.613" y="1152.582" style="fill:#03B6D3;" width="157.109" height="324.34"/>
			<g>
				<rect x="1395.313" y="1174.836" style="fill:#00415E;" width="14.004" height="135.785"/>
				<rect x="1395.313" y="1322.711" style="fill:#00415E;" width="14.004" height="135.793"/>
			</g>
			<g>
				<rect x="1373.102" y="1174.836" style="fill:#00415E;" width="14.004" height="135.785"/>
				<rect x="1373.102" y="1322.711" style="fill:#00415E;" width="14.004" height="135.793"/>
			</g>
			<g>
				<rect x="1350.887" y="1174.836" style="fill:#00415E;" width="14" height="135.785"/>
				<rect x="1350.887" y="1322.711" style="fill:#00415E;" width="14" height="135.793"/>
			</g>
			<g>
				<rect x="1328.676" y="1174.836" style="fill:#00415E;" width="14.004" height="135.785"/>
				<rect x="1328.676" y="1322.711" style="fill:#00415E;" width="14.004" height="135.793"/>
			</g>
			<g>
				<rect x="1306.465" y="1174.836" style="fill:#00415E;" width="14" height="135.785"/>
				<rect x="1306.465" y="1322.711" style="fill:#00415E;" width="14" height="135.793"/>
			</g>
			<g>
				<rect x="1284.254" y="1174.836" style="fill:#00415E;" width="13.996" height="135.785"/>
				<rect x="1284.254" y="1322.711" style="fill:#00415E;" width="13.996" height="135.793"/>
			</g>
		</g>
		<rect x="1266.613" y="1139.145" style="fill:#7DA1A4;" width="157.109" height="10.633"/>
		<rect x="1262.309" y="1146.297" style="fill:#9FBBBE;" width="164.723" height="20.871"/>
	</g>
	<g>
		<g>
			<rect x="453.191" y="854.945" style="fill:#1699A8;" width="189.145" height="622.648"/>
			<rect x="534.535" y="854.945" style="fill:#03B6D3;" width="189.148" height="622.648"/>
			<g>
				<rect x="547.762" y="900.027" style="fill:#00415E;" width="26.98" height="270.492"/>
				<rect x="582.715" y="900.027" style="fill:#00415E;" width="26.977" height="270.492"/>
				<rect x="617.66" y="900.027" style="fill:#00415E;" width="26.98" height="270.492"/>
				<rect x="652.609" y="900.027" style="fill:#00415E;" width="26.976" height="270.492"/>
				<rect x="687.559" y="900.027" style="fill:#00415E;" width="26.977" height="270.492"/>
			</g>
			<g>
				<rect x="547.762" y="1186.883" style="fill:#00415E;" width="26.98" height="270.492"/>
				<rect x="582.715" y="1186.883" style="fill:#00415E;" width="26.977" height="270.492"/>
				<rect x="617.66" y="1186.883" style="fill:#00415E;" width="26.98" height="270.492"/>
				<rect x="652.609" y="1186.883" style="fill:#00415E;" width="26.976" height="270.492"/>
				<rect x="687.559" y="1186.883" style="fill:#00415E;" width="26.977" height="270.492"/>
			</g>
			<rect x="447.801" y="844.168" style="fill:#FFFFFF;" width="281.273" height="30.379"/>
			<rect x="447.801" y="844.168" style="fill:#8FB7C2;" width="87.227" height="30.379"/>
		</g>
		<g>
			<rect x="458.094" y="900.027" style="fill:#00415E;" width="13.719" height="266.246"/>
			<rect x="476.711" y="900.027" style="fill:#00415E;" width="13.719" height="266.246"/>
			<rect x="495.332" y="900.027" style="fill:#00415E;" width="13.723" height="266.246"/>
			<rect x="513.953" y="900.027" style="fill:#00415E;" width="13.723" height="266.246"/>
		</g>
		<g>
			<rect x="458.094" y="1189" style="fill:#00415E;" width="13.719" height="266.246"/>
			<rect x="476.711" y="1189" style="fill:#00415E;" width="13.719" height="266.246"/>
			<rect x="495.332" y="1189" style="fill:#00415E;" width="13.723" height="266.246"/>
			<rect x="513.953" y="1189" style="fill:#00415E;" width="13.723" height="266.246"/>
		</g>
	</g>
	<g>
		<rect x="688.422" y="1059.777" style="fill:#DBC9C7;" width="189.105" height="19.637"/>
		<rect x="688.422" y="1074.246" style="fill:#77B0CE;" width="189.105" height="403.348"/>
		<rect x="682.738" y="1074.246" style="fill:#FFFFFF;" width="200.473" height="19.637"/>
		<g>
			<g>
				<rect x="712.445" y="1107.309" style="fill:#00415E;" width="27.902" height="79.574"/>
				<rect x="750.164" y="1107.309" style="fill:#00415E;" width="27.906" height="79.574"/>
				<rect x="787.883" y="1107.309" style="fill:#00415E;" width="27.902" height="79.574"/>
				<rect x="825.602" y="1107.309" style="fill:#00415E;" width="27.898" height="79.574"/>
			</g>
		</g>
		<g>
			<g>
				<rect x="712.445" y="1198.59" style="fill:#00415E;" width="27.902" height="79.57"/>
				<rect x="750.164" y="1198.59" style="fill:#00415E;" width="27.906" height="79.57"/>
				<rect x="787.883" y="1198.59" style="fill:#00415E;" width="27.902" height="79.57"/>
				<rect x="825.602" y="1198.59" style="fill:#00415E;" width="27.898" height="79.57"/>
			</g>
		</g>
		<g>
			<g>
				<rect x="712.445" y="1289.871" style="fill:#00415E;" width="27.902" height="79.563"/>
				<rect x="750.164" y="1289.871" style="fill:#00415E;" width="27.906" height="79.563"/>
				<rect x="787.883" y="1289.871" style="fill:#00415E;" width="27.902" height="79.563"/>
				<rect x="825.602" y="1289.871" style="fill:#00415E;" width="27.898" height="79.563"/>
			</g>
		</g>
		<g>
			<g>
				<rect x="712.445" y="1381.145" style="fill:#00415E;" width="27.902" height="79.57"/>
				<rect x="750.164" y="1381.145" style="fill:#00415E;" width="27.906" height="79.57"/>
				<rect x="787.883" y="1381.145" style="fill:#00415E;" width="27.902" height="79.57"/>
				<rect x="825.602" y="1381.145" style="fill:#00415E;" width="27.898" height="79.57"/>
			</g>
		</g>
	</g>
	<g>
		<rect x="757.48" y="1297.309" style="fill:#002F43;" width="102.238" height="180.285"/>
		<rect x="859.719" y="1297.309" style="fill:#00415E;" width="182.492" height="180.285"/>
		<rect x="875.109" y="1317.277" style="fill:#03B6D3;" width="152.809" height="146.031"/>
		<g>
			<g>
				<rect x="874.012" y="1325.156" style="fill:#00415E;" width="155.004" height="7.875"/>
				<rect x="874.012" y="1349.066" style="fill:#00415E;" width="155.004" height="7.875"/>
				<rect x="874.012" y="1372.977" style="fill:#00415E;" width="155.004" height="7.875"/>
				<rect x="874.012" y="1396.887" style="fill:#00415E;" width="155.004" height="7.879"/>
				<rect x="874.012" y="1420.797" style="fill:#00415E;" width="155.004" height="7.879"/>
			</g>
			<rect x="874.012" y="1444.707" style="fill:#00415E;" width="155.004" height="7.879"/>
		</g>
		<rect x="753.082" y="1285.398" style="fill:#FFFFFF;" width="293.527" height="11.91"/>
	</g>
	<g>
		<polygon style="fill:#8EA7AF;" points="383.918,1027.145 243.125,1027.145 243.125,999.656 355.844,956.32 383.918,956.32 		"/>
		<polygon style="fill:#B7C8CE;" points="413.859,1044.996 224.27,1044.996 224.27,1028.445 385.789,983.531 413.859,983.531 		"/>
		<rect x="218.219" y="1042.84" style="fill:#03B6D3;" width="200.391" height="434.754"/>
		<rect x="214.336" y="1034.207" style="fill:#FFFFFF;" width="207.875" height="35.695"/>
		<g>
			<g>
				<rect x="384.34" y="1083.148" style="fill:#FFFFFF;" width="23.629" height="50.73"/>
			</g>
			<g>
				<rect x="384.34" y="1148.328" style="fill:#FFFFFF;" width="23.629" height="50.727"/>
			</g>
			<g>
				<rect x="384.34" y="1213.512" style="fill:#FFFFFF;" width="23.629" height="50.723"/>
			</g>
			<g>
				<rect x="384.34" y="1278.684" style="fill:#03B6D3;" width="23.629" height="50.73"/>
			</g>
			<g>
				<rect x="384.34" y="1343.867" style="fill:#03B6D3;" width="23.629" height="50.723"/>
			</g>
			<g>
				<rect x="384.34" y="1409.047" style="fill:#03B6D3;" width="23.629" height="50.723"/>
			</g>
		</g>
		<g>
			<g>
				<rect x="231.313" y="1083.148" style="fill:#FFFFFF;" width="23.625" height="50.73"/>
			</g>
			<g>
				<rect x="231.313" y="1148.328" style="fill:#FFFFFF;" width="23.625" height="50.727"/>
			</g>
			<g>
				<rect x="231.313" y="1213.512" style="fill:#FFFFFF;" width="23.625" height="50.723"/>
			</g>
			<g>
				<rect x="231.313" y="1278.684" style="fill:#FFFFFF;" width="23.625" height="50.73"/>
			</g>
			<g>
				<rect x="231.313" y="1343.867" style="fill:#FFFFFF;" width="23.625" height="50.723"/>
			</g>
			<g>
				<rect x="231.313" y="1409.047" style="fill:#FFFFFF;" width="23.625" height="50.723"/>
			</g>
		</g>
		<rect x="265.871" y="1083.148" style="fill:#002A3C;" width="48.516" height="115.906"/>
		<rect x="323.453" y="1083.148" style="fill:#002A3C;" width="48.516" height="115.906"/>
		<polygon style="opacity:0.3;fill:#70CCDD;" points="265.871,1149.613 314.387,1131.199 314.387,1083.148 265.871,1083.148 		"/>
		<polygon style="opacity:0.3;fill:#70CCDD;" points="323.453,1127.758 371.969,1109.348 371.969,1083.148 323.453,1083.148 		"/>
		<rect x="266.016" y="1215.594" style="fill:#002A3C;" width="48.516" height="115.902"/>
		<rect x="323.598" y="1215.594" style="fill:#002A3C;" width="48.516" height="115.902"/>
		<polygon style="opacity:0.3;fill:#70CCDD;" points="266.016,1282.059 314.531,1263.645 314.531,1215.594 266.016,1215.594 		"/>
		<polygon style="opacity:0.3;fill:#70CCDD;" points="323.598,1260.203 372.113,1241.789 372.113,1215.594 323.598,1215.594 		"/>
		<rect x="266.156" y="1348.039" style="fill:#002A3C;" width="48.519" height="115.902"/>
		<rect x="323.742" y="1348.039" style="fill:#002A3C;" width="48.516" height="115.902"/>
		<polygon style="opacity:0.3;fill:#70CCDD;" points="266.156,1414.504 314.676,1396.09 314.676,1348.039 266.156,1348.039 		"/>
		<polygon style="opacity:0.3;fill:#70CCDD;" points="323.742,1392.648 372.258,1374.234 372.258,1348.039 323.742,1348.039 		"/>
	</g>
	<g>
		<g>
			<rect x="351.582" y="1263.836" style="fill:#77B0CE;" width="286.352" height="213.758"/>
			<rect x="351.582" y="1263.836" style="fill:#629BB5;" width="110.246" height="213.758"/>
			<g>
				<rect x="476.711" y="1292" style="fill:#FFFFFF;" width="28.156" height="28.152"/>
				<rect x="518.805" y="1292.184" style="fill:#FFFFFF;" width="28.156" height="28.164"/>
				<rect x="560.898" y="1292.371" style="fill:#FFFFFF;" width="28.156" height="28.156"/>
				<rect x="602.992" y="1292.559" style="fill:#FFFFFF;" width="28.16" height="28.156"/>
			</g>
			<g>
				<rect x="476.711" y="1334.363" style="fill:#FFFFFF;" width="28.156" height="28.16"/>
				<rect x="518.805" y="1334.547" style="fill:#FFFFFF;" width="28.156" height="28.164"/>
				<rect x="560.898" y="1334.734" style="fill:#FFFFFF;" width="28.156" height="28.156"/>
				<rect x="602.992" y="1334.922" style="fill:#FFFFFF;" width="28.16" height="28.16"/>
			</g>
			<g>
				<rect x="476.711" y="1376.727" style="fill:#FFFFFF;" width="28.156" height="28.152"/>
				<rect x="518.805" y="1376.91" style="fill:#FFFFFF;" width="28.156" height="28.156"/>
				<rect x="560.898" y="1377.098" style="fill:#FFFFFF;" width="28.156" height="28.156"/>
				<rect x="602.992" y="1377.281" style="fill:#FFFFFF;" width="28.16" height="28.16"/>
			</g>
			<g>
				<rect x="476.711" y="1419.09" style="fill:#FFFFFF;" width="28.156" height="28.152"/>
				<rect x="518.805" y="1419.27" style="fill:#FFFFFF;" width="28.156" height="28.16"/>
				<rect x="560.898" y="1419.461" style="fill:#FFFFFF;" width="28.156" height="28.156"/>
				<rect x="602.992" y="1419.645" style="fill:#FFFFFF;" width="28.16" height="28.152"/>
			</g>
			<g>
				<rect x="430.324" y="1292" style="fill:#9EC5D4;" width="15.352" height="28.152"/>
				<rect x="406.148" y="1292" style="fill:#9EC5D4;" width="15.355" height="28.152"/>
				<rect x="381.977" y="1292" style="fill:#9EC5D4;" width="15.351" height="28.152"/>
				<rect x="357.801" y="1292" style="fill:#9EC5D4;" width="15.355" height="28.152"/>
			</g>
			<g>
				<rect x="430.324" y="1334.363" style="fill:#9EC5D4;" width="15.352" height="28.16"/>
				<rect x="406.148" y="1334.363" style="fill:#9EC5D4;" width="15.355" height="28.16"/>
				<rect x="381.977" y="1334.363" style="fill:#9EC5D4;" width="15.351" height="28.16"/>
				<rect x="357.801" y="1334.363" style="fill:#9EC5D4;" width="15.355" height="28.16"/>
			</g>
			<g>
				<rect x="430.324" y="1376.727" style="fill:#9EC5D4;" width="15.352" height="28.152"/>
				<rect x="406.148" y="1376.727" style="fill:#9EC5D4;" width="15.355" height="28.152"/>
				<rect x="381.977" y="1376.727" style="fill:#9EC5D4;" width="15.351" height="28.152"/>
				<rect x="357.801" y="1376.727" style="fill:#9EC5D4;" width="15.355" height="28.152"/>
			</g>
			<g>
				<rect x="430.324" y="1419.09" style="fill:#9EC5D4;" width="15.352" height="28.152"/>
				<rect x="406.148" y="1419.09" style="fill:#9EC5D4;" width="15.355" height="28.152"/>
				<rect x="381.977" y="1419.09" style="fill:#9EC5D4;" width="15.351" height="28.152"/>
				<rect x="357.801" y="1419.09" style="fill:#9EC5D4;" width="15.355" height="28.152"/>
			</g>
		</g>
		<rect x="346.855" y="1259.699" style="fill:#FFFFFF;" width="295.48" height="16.066"/>
	</g>
</g>
<path style="fill:#466974;" d="M2333.184,1510.348c0,18.465-14.969,33.43-33.426,33.43H144.672
	c-18.457,0-33.422-14.965-33.422-33.43l0,0c0-18.461,14.965-33.426,33.422-33.426h2155.086
	C2318.215,1476.922,2333.184,1491.887,2333.184,1510.348L2333.184,1510.348z"/>
<path style="fill:#FFFFFF;" d="M1377.891,686.883h318.887c0,0,2.066-23.953-23.371-18.246c0,0,1.703-39.914-32.395-13.688
	c0,0-21.555-18.051-34.098,11.504c0,0-25.832-14.922-43.133,9.027c0,0-3.625-34.965-45.816-29.457c0,0,1.141-37.828-50.176-26.422
	c0,0-54.375-28.375-69.383,32.57C1398.406,652.172,1352.609,661.793,1377.891,686.883z"/>
<path style="fill:#FFFFFF;" d="M1938.934,362.176h396.871c0,0,2.566-29.805-29.09-22.707c0,0,2.117-49.68-40.32-17.035
	c0,0-26.82-22.465-42.43,14.316c0,0-32.148-18.57-53.688,11.234c0,0-4.512-43.516-57.023-36.66c0,0,1.422-47.078-62.445-32.887
	c0,0-67.664-35.309-86.344,40.535C1964.465,318.973,1907.461,330.953,1938.934,362.176z"/>
</svg>
